<svg xmlns="http://www.w3.org/2000/svg" version="1.0" viewBox="193.99 292.14 3696.02 978.33" preserveAspectRatio="xMidYMid meet">
<g transform="translate(0.000000,1566.000000) scale(0.100000,-0.100000)" fill="#000000" stroke="none">
<path d="M6576 12709 c-302 -16 -588 -57 -896 -129 -68 -16 -186 -48 -230 -62 -25 -9 -65 -21 -90 -28 -43 -12 -77 -24 -205 -70 -147 -54 -176 -65 -360 -148 -126 -57 -326 -162 -445 -235 -36 -22 -80 -48 -98 -59 -42 -23 -205 -133 -252 -168 -19 -15 -62 -46 -95 -71 -33 -24 -62 -46 -65 -49 -3 -3 -25 -21 -50 -40 -25 -19 -47 -37 -50 -40 -3 -3 -47 -41 -98 -84 -94 -79 -336 -314 -428 -416 -212 -233 -456 -570 -617 -850 -190 -331 -352 -711 -447 -1050 -7 -25 -16 -56 -20 -70 -28 -90 -67 -261 -100 -440 -85 -449 -98 -1013 -34 -1505 14 -111 46 -306 63 -380 5 -22 14 -62 20 -90 11 -51 16 -72 45 -180 26 -94 75 -255 96 -310 10 -27 33 -90 51 -140 17 -49 45 -118 60 -153 16 -34 29 -65 29 -68 0 -9 166 -343 203 -409 121 -214 206 -346 331 -515 344 -465 763 -867 1228 -1178 76 -51 153 -101 170 -111 18 -10 74 -42 123 -71 124 -72 479 -250 500 -250 3 0 24 -9 48 -19 115 -51 341 -132 477 -171 25 -7 56 -16 70 -20 58 -19 338 -84 428 -99 34 -6 88 -15 120 -21 240 -41 436 -55 782 -55 355 0 548 15 830 64 129 23 121 21 258 52 360 80 697 199 1047 369 159 78 365 192 447 248 24 16 57 36 73 45 17 8 62 38 100 66 39 28 99 72 135 98 68 49 240 186 300 239 290 256 501 482 717 769 90 120 253 359 253 371 0 3 8 18 19 32 18 27 31 49 98 167 54 96 223 445 223 460 0 3 8 24 19 48 10 23 29 69 41 102 12 33 26 69 30 80 8 19 47 134 85 255 16 52 47 165 65 240 9 36 53 248 69 335 100 520 92 1260 -19 1780 -5 22 -14 67 -21 100 -12 57 -50 212 -70 283 -23 82 -31 109 -39 137 -17 62 -60 187 -90 260 -4 11 -18 47 -31 80 -12 33 -32 83 -45 110 -12 28 -32 73 -44 100 -27 61 -139 286 -169 338 -11 20 -30 53 -41 72 -11 19 -29 52 -41 72 -11 20 -38 62 -60 94 -21 32 -39 61 -39 65 0 15 -253 358 -342 464 -224 264 -434 470 -723 708 -97 80 -420 305 -517 361 -18 10 -73 41 -121 69 -77 45 -346 180 -447 225 -129 57 -459 176 -577 208 -18 5 -50 14 -70 20 -48 13 -94 25 -158 39 -27 7 -68 16 -90 22 -22 5 -60 13 -85 18 -25 4 -72 13 -105 20 -157 30 -411 58 -640 70 -210 11 -257 11 -489 -1z m526 -459 c351 -24 669 -79 986 -171 17 -5 47 -13 65 -18 17 -5 44 -13 59 -19 l27 -11 -26 -68 c-13 -37 -29 -79 -33 -93 -5 -14 -23 -63 -40 -110 -17 -47 -35 -96 -40 -110 -5 -14 -23 -63 -40 -110 -17 -47 -35 -96 -40 -110 -5 -14 -23 -63 -40 -110 -17 -47 -35 -96 -40 -110 -5 -14 -23 -63 -40 -110 -17 -47 -35 -96 -40 -110 -5 -14 -23 -63 -40 -110 -17 -47 -35 -96 -40 -110 -5 -14 -23 -63 -40 -110 -18 -47 -50 -133 -71 -192 -21 -60 -57 -157 -79 -218 -22 -60 -57 -158 -79 -217 -21 -60 -52 -144 -68 -188 l-29 -80 -55 -5 c-70 -6 -101 -27 -134 -89 -21 -38 -40 -56 -87 -82 -187 -106 -216 -138 -203 -227 7 -53 65 -142 91 -142 9 0 46 -10 83 -21 36 -12 72 -23 78 -25 13 -3 13 -4 -18 -79 -4 -11 -13 -37 -20 -57 -12 -34 -16 -38 -49 -38 -36 0 -44 -4 -148 -77 -34 -24 -66 -43 -71 -43 -6 0 -21 18 -33 40 -13 22 -35 45 -50 51 -20 8 -31 23 -38 50 -13 47 -49 91 -92 113 -80 40 -142 76 -149 87 -4 7 -3 21 2 32 15 27 2 72 -32 108 -23 25 -27 35 -18 45 6 8 17 14 23 14 14 0 59 46 74 75 5 11 13 45 17 76 5 44 3 65 -10 93 -10 20 -16 39 -13 41 2 3 35 10 74 16 183 29 248 44 348 82 69 26 141 86 161 134 17 40 19 91 5 113 -7 12 7 32 63 88 l72 73 -4 72 c-8 134 -5 232 8 271 7 21 13 66 13 101 -1 84 -45 177 -124 260 -86 89 -87 112 -2 135 35 10 52 22 75 56 16 23 29 46 29 49 0 4 8 19 19 33 27 40 33 76 16 98 -8 10 -15 22 -15 25 0 3 27 21 60 38 54 29 65 31 92 22 64 -22 120 -6 140 41 10 23 19 28 46 28 65 0 114 45 132 121 24 101 -47 228 -135 242 -65 11 -155 -12 -224 -55 -39 -24 -55 -28 -122 -28 l-77 0 -48 -56 c-51 -59 -88 -84 -127 -84 -34 0 -76 -46 -90 -97 -10 -39 -16 -45 -51 -54 -54 -14 -150 -107 -172 -166 -16 -40 -16 -54 -5 -119 7 -41 9 -84 6 -97 -9 -27 -64 -87 -81 -87 -7 0 -27 -12 -44 -27 -31 -25 -32 -30 -27 -79 3 -33 23 -89 55 -155 74 -155 78 -171 64 -224 -20 -76 -50 -112 -109 -130 -28 -9 -90 -36 -138 -61 -79 -41 -132 -54 -149 -37 -12 12 -80 33 -109 33 -63 0 -114 -48 -138 -130 -19 -68 -32 -79 -82 -69 -117 23 -207 84 -207 141 0 7 4 7 13 0 6 -5 28 -13 47 -17 19 -4 43 -14 52 -22 9 -8 25 -13 35 -11 14 3 18 13 17 48 -2 67 -18 100 -49 100 -42 0 -95 -36 -108 -73 -7 -19 -16 -4 -43 74 -14 41 -29 83 -34 94 -5 11 -16 40 -24 65 -28 86 -87 255 -96 275 -5 11 -16 40 -24 65 -8 25 -33 97 -56 160 -23 63 -54 153 -70 200 -16 47 -43 123 -60 170 -17 47 -44 123 -60 170 -16 47 -43 123 -60 170 -60 163 -81 233 -73 240 4 4 35 17 68 29 33 13 69 27 80 32 70 30 303 100 445 134 36 9 81 20 100 24 346 87 847 127 1242 101z m1400 -317 c145 -57 410 -185 521 -251 34 -20 74 -43 88 -52 128 -75 349 -228 474 -329 235 -189 489 -437 655 -641 25 -30 48 -57 51 -60 11 -10 186 -246 226 -305 163 -244 321 -545 433 -824 69 -173 135 -380 176 -546 8 -33 19 -76 24 -95 13 -45 39 -180 50 -250 26 -170 32 -219 45 -365 41 -452 4 -950 -105 -1425 -4 -19 -15 -61 -24 -92 -9 -32 -22 -82 -30 -110 -24 -88 -104 -321 -135 -393 -5 -11 -24 -56 -42 -100 -32 -76 -180 -377 -217 -440 -10 -16 -31 -52 -47 -80 -73 -126 -335 -499 -374 -535 -4 -3 -31 -34 -61 -70 -152 -181 -379 -404 -570 -561 -140 -115 -362 -276 -451 -327 -19 -11 -72 -43 -119 -71 -116 -71 -461 -239 -595 -291 -60 -23 -119 -46 -130 -50 -26 -11 -186 -63 -245 -80 -25 -7 -56 -16 -70 -20 -86 -26 -278 -70 -415 -95 -40 -8 -233 -34 -335 -47 -67 -8 -228 -13 -445 -13 -321 0 -414 5 -613 35 -34 5 -95 14 -135 20 -39 6 -88 15 -107 20 -19 5 -62 14 -95 21 -51 10 -171 40 -280 69 -55 14 -310 100 -327 110 -10 6 -22 10 -28 10 -6 0 -30 9 -55 20 -25 11 -65 29 -90 40 -25 11 -47 20 -50 20 -13 0 -305 147 -385 193 -47 27 -100 58 -118 68 -56 33 -305 201 -372 252 -328 252 -657 580 -867 863 -12 16 -37 50 -56 75 -47 62 -197 287 -197 295 0 3 -8 18 -19 32 -53 76 -246 457 -302 597 -82 207 -148 404 -180 538 -5 20 -13 54 -19 75 -44 175 -85 417 -111 662 -19 172 -16 661 4 845 22 192 45 342 77 490 17 76 52 220 60 245 4 14 13 45 20 70 36 126 114 348 150 427 11 24 20 45 20 48 0 35 237 494 311 602 16 23 29 44 29 48 0 7 70 112 110 165 15 19 46 62 71 95 42 57 157 204 169 215 3 3 34 39 70 80 35 41 123 134 195 205 279 277 551 488 883 686 102 60 430 229 446 229 7 0 26 -45 55 -130 12 -36 26 -74 31 -85 5 -11 16 -40 24 -65 29 -88 87 -255 96 -275 5 -11 25 -67 44 -125 19 -58 49 -143 66 -190 17 -47 44 -123 60 -170 16 -47 43 -123 60 -170 17 -47 44 -123 60 -170 16 -47 43 -123 60 -170 18 -47 33 -91 33 -99 1 -8 -11 -21 -28 -31 -35 -19 -96 -97 -125 -157 -24 -50 -44 -63 -102 -63 -48 0 -139 -30 -162 -53 -28 -28 -56 -82 -56 -110 0 -48 39 -116 87 -148 l43 -30 -19 -27 c-34 -48 -138 -141 -165 -148 -14 -3 -45 -3 -68 0 -133 19 -142 18 -169 -6 -47 -42 -53 -65 -55 -194 -2 -101 -6 -128 -23 -162 -28 -54 -96 -138 -195 -240 -98 -100 -151 -176 -159 -228 -9 -54 -8 -180 3 -234 5 -25 15 -85 24 -135 26 -149 47 -169 169 -159 41 4 90 4 108 0 l34 -6 0 -87 c1 -74 5 -96 26 -138 27 -54 77 -95 116 -95 58 0 111 39 237 173 16 16 27 19 70 13 28 -3 66 -6 84 -6 30 0 32 -2 32 -33 0 -46 29 -70 123 -101 103 -35 129 -34 162 5 17 21 30 28 36 22 5 -5 16 -52 24 -105 10 -68 23 -111 45 -151 44 -81 42 -87 -33 -87 -79 0 -77 -1 -161 154 -29 53 -59 72 -91 58 -40 -18 -33 -61 20 -131 25 -32 45 -64 45 -70 0 -8 -60 -11 -195 -11 -107 0 -195 3 -195 8 0 4 19 27 41 52 94 105 107 148 54 172 -34 15 -52 1 -120 -98 -33 -48 -65 -89 -70 -91 -6 -2 -39 38 -74 87 -72 102 -92 118 -127 101 -43 -19 -32 -63 36 -146 33 -40 60 -77 60 -81 0 -4 -54 -4 -119 -1 -105 4 -122 3 -135 -12 -21 -23 -20 -55 1 -77 15 -15 31 -16 135 -10 101 6 118 5 118 -8 0 -8 -3 -16 -7 -18 -12 -5 -98 -110 -112 -136 -28 -53 49 -98 89 -52 10 11 41 56 70 100 29 44 56 80 60 80 4 0 24 -26 45 -57 87 -132 122 -160 164 -134 32 20 16 66 -47 143 -34 41 -62 78 -62 81 0 4 90 7 200 7 110 0 200 -3 200 -7 0 -3 -17 -29 -39 -57 -73 -97 -76 -102 -57 -132 14 -20 24 -25 49 -22 19 2 35 11 42 23 5 11 32 60 60 109 l50 88 35 -6 c19 -3 52 -6 73 -6 35 0 38 -2 31 -22 -4 -13 -19 -41 -34 -63 -22 -33 -29 -59 -39 -150 -29 -267 -39 -295 -105 -295 -54 0 -129 -36 -189 -91 -27 -24 -70 -54 -95 -65 l-47 -22 -37 34 c-65 58 -173 69 -215 21 -38 -43 -46 -82 -39 -187 7 -111 5 -114 -74 -139 -19 -6 -56 -18 -83 -26 -26 -8 -75 -26 -108 -41 -65 -27 -65 -27 -154 11 -190 82 -261 87 -318 21 -39 -44 -50 -88 -51 -196 0 -123 23 -209 82 -305 l37 -60 0 -175 c1 -144 4 -184 19 -229 27 -75 73 -131 134 -162 83 -41 83 -42 162 -211 18 -39 49 -86 76 -111 l45 -44 -34 -26 c-48 -36 -63 -77 -47 -126 19 -57 331 -349 470 -440 49 -32 62 -36 120 -35 54 0 78 6 140 36 95 46 130 59 139 53 5 -2 5 -25 1 -50 -10 -66 -2 -94 34 -116 47 -29 119 -25 341 21 243 51 294 60 322 60 39 0 41 -7 8 -39 -31 -29 -33 -74 -5 -116 31 -47 128 -122 174 -135 86 -24 167 26 215 134 12 25 26 48 32 51 16 11 64 -14 87 -44 33 -45 85 -54 299 -49 211 5 239 12 301 74 49 49 80 61 209 78 210 28 280 65 473 252 80 78 165 151 189 163 58 30 128 96 153 146 41 79 67 202 68 316 l0 105 48 26 c100 53 118 132 57 253 -19 39 -48 95 -65 125 -16 30 -30 63 -30 72 0 25 22 68 34 68 14 0 95 -152 136 -255 49 -124 67 -159 106 -211 66 -89 154 -154 207 -154 44 0 114 56 169 136 83 119 164 219 197 244 23 15 60 25 132 35 128 16 198 50 250 119 21 27 43 61 50 75 7 14 30 49 50 76 56 74 69 105 69 159 0 62 -28 120 -97 196 -29 32 -53 61 -53 64 0 3 22 27 49 53 39 39 51 58 60 99 21 103 -19 234 -104 338 -32 40 -49 71 -52 97 -9 66 1 82 73 120 115 59 143 122 79 178 -20 17 -39 31 -44 31 -5 0 -25 7 -46 15 -32 14 -35 18 -23 32 24 30 15 130 -21 206 -37 80 -38 99 -10 157 19 39 20 48 8 82 -9 29 -10 41 -1 50 15 15 15 50 1 97 -10 33 -8 41 19 86 27 45 31 60 35 160 4 86 2 117 -10 143 -8 17 -18 32 -22 32 -3 0 -19 11 -35 24 l-30 23 32 48 c31 47 40 92 26 129 -3 9 -28 31 -55 51 -27 19 -49 42 -49 50 0 34 -45 107 -110 178 -66 70 -84 107 -60 122 17 11 11 70 -10 93 -11 12 -20 24 -20 27 0 3 9 15 20 27 29 31 25 57 -18 124 -48 74 -64 87 -115 93 -33 5 -42 11 -47 30 -8 35 -48 61 -106 67 -49 6 -53 5 -93 -31 -47 -43 -51 -42 -127 16 -36 27 -50 31 -107 32 -78 2 -106 -17 -116 -80 -7 -45 -33 -55 -60 -24 -21 24 -103 61 -136 61 -13 0 -36 -5 -51 -10 -44 -17 -129 29 -286 157 -99 80 -130 95 -190 95 -41 0 -56 -6 -101 -40 -36 -28 -70 -44 -112 -53 -77 -17 -110 -49 -119 -118 -6 -43 -13 -55 -54 -92 -26 -23 -81 -64 -122 -92 -41 -28 -92 -64 -112 -80 -21 -17 -41 -28 -44 -24 -4 3 3 31 16 62 22 53 23 55 61 55 68 0 112 37 157 132 22 46 58 103 79 128 139 157 137 242 -8 315 -39 20 -49 30 -44 43 4 9 20 53 37 97 16 44 37 103 48 130 10 28 30 84 45 125 14 41 30 84 35 95 5 11 27 72 50 135 23 63 50 139 61 168 19 51 40 109 78 215 11 28 31 84 46 122 15 39 33 90 41 115 8 25 19 54 24 65 4 11 27 72 50 135 23 63 50 139 61 168 19 51 40 109 78 215 11 28 31 84 46 122 15 39 33 90 41 115 8 25 19 54 24 65 5 11 19 48 31 83 12 34 26 62 30 62 5 0 73 -26 151 -57z m-863 -267 c17 -18 22 -33 19 -62 -3 -42 -1 -41 -77 -25 -37 7 -46 6 -63 -11 -13 -13 -18 -28 -14 -41 9 -36 -8 -53 -39 -39 -37 17 -73 15 -103 -6 -15 -10 -48 -28 -74 -41 -93 -46 -141 -130 -109 -190 17 -31 -18 -86 -58 -94 -17 -4 -50 -26 -75 -50 -42 -40 -46 -48 -46 -90 0 -65 33 -129 90 -177 32 -27 56 -59 75 -101 27 -60 27 -64 15 -133 -17 -101 -23 -258 -11 -301 10 -37 10 -38 -65 -117 l-76 -79 7 -68 7 -69 -34 -24 c-51 -37 -105 -59 -198 -78 -30 -7 -71 -16 -90 -20 -19 -5 -71 -14 -115 -20 -117 -17 -165 -32 -186 -59 -27 -33 -24 -51 16 -107 37 -51 45 -98 23 -126 -7 -8 -34 -29 -60 -47 -91 -61 -103 -113 -39 -168 36 -31 40 -38 39 -81 -2 -75 26 -108 142 -169 89 -48 97 -55 111 -97 17 -55 45 -93 80 -111 16 -9 29 -22 29 -30 0 -7 17 -27 37 -44 55 -45 102 -43 184 10 35 23 66 45 67 50 2 5 11 9 19 9 18 0 17 -2 -27 -120 -17 -47 -35 -96 -40 -110 -5 -14 -23 -63 -40 -110 -17 -47 -35 -96 -40 -110 -5 -14 -23 -63 -40 -110 -17 -47 -35 -96 -40 -110 -5 -14 -23 -63 -40 -110 -17 -47 -35 -96 -40 -110 -5 -14 -22 -63 -40 -110 -17 -47 -37 -100 -43 -119 -7 -19 -16 -36 -22 -38 -5 -1 -27 48 -47 110 -20 61 -51 150 -68 197 -17 47 -44 123 -60 170 -16 47 -43 123 -60 170 -17 47 -44 123 -60 170 -16 47 -43 123 -60 170 -17 47 -44 123 -60 170 -16 47 -43 123 -60 170 -17 47 -44 123 -60 170 -16 47 -43 123 -60 170 -17 47 -44 123 -60 170 -16 47 -43 123 -60 170 -62 169 -98 279 -93 284 3 3 11 2 17 -2 6 -4 31 -12 56 -19 127 -34 197 2 231 120 22 76 32 78 152 35 39 -15 75 -5 200 57 62 30 121 55 132 55 87 0 183 167 172 296 -6 59 -16 87 -86 236 -34 74 -37 88 -17 88 17 0 99 87 120 127 19 37 22 85 11 176 l-8 68 48 44 c32 30 57 45 74 45 32 0 85 52 95 93 8 36 40 67 69 67 34 0 81 33 117 84 l33 46 66 0 c36 0 77 6 91 13 14 8 41 23 61 34 69 40 126 43 158 9z m-1944 -1608 c9 -24 23 -63 31 -88 8 -25 19 -54 24 -65 5 -11 25 -67 44 -125 19 -58 49 -143 66 -190 17 -47 44 -123 60 -170 16 -47 43 -123 60 -170 17 -47 44 -123 60 -170 16 -47 43 -123 60 -170 17 -47 44 -123 60 -170 39 -115 80 -231 90 -255 9 -20 69 -192 97 -278 16 -46 16 -48 -6 -71 -12 -13 -31 -53 -42 -90 -11 -36 -21 -66 -23 -66 -1 0 -23 26 -48 58 -39 50 -43 61 -34 82 13 33 45 107 62 147 27 60 13 96 -36 96 -42 0 -49 -11 -79 -127 -5 -21 -13 -42 -18 -47 -10 -10 -103 103 -103 125 0 8 18 56 40 106 54 123 52 160 -11 160 -35 0 -43 -11 -70 -102 -12 -43 -25 -78 -29 -78 -6 0 -196 232 -239 293 -13 18 -10 19 99 16 101 -3 113 -2 126 16 19 25 18 50 -3 70 -15 15 -32 16 -140 10 -86 -5 -123 -4 -123 4 0 6 6 28 14 48 49 137 58 176 45 199 -9 18 -21 24 -45 24 -47 0 -54 -16 -80 -173 -4 -21 -10 -40 -15 -42 -4 -3 -33 30 -64 72 -31 43 -64 88 -73 101 -19 25 -56 29 -78 8 -28 -29 -16 -63 48 -138 34 -40 66 -74 70 -76 5 -2 8 -10 8 -18 0 -11 -21 -14 -102 -14 -80 0 -105 -3 -120 -17 -21 -19 -23 -41 -3 -67 12 -16 27 -18 120 -17 58 1 112 4 120 7 25 10 27 -22 6 -88 -37 -110 -41 -124 -41 -148 0 -26 26 -49 56 -50 35 0 37 5 75 168 7 28 16 52 20 52 3 0 26 -26 50 -57 24 -32 77 -100 118 -152 84 -109 84 -109 -38 -110 -79 -1 -100 -13 -101 -57 0 -48 34 -52 210 -25 61 10 66 10 83 -12 10 -12 24 -29 30 -37 33 -41 57 -80 50 -81 -4 0 -37 0 -73 1 -103 2 -140 -20 -126 -74 8 -33 35 -40 114 -27 168 25 153 27 195 -27 20 -27 37 -54 37 -61 0 -7 -19 -11 -49 -11 -75 0 -107 -10 -121 -36 -11 -19 -10 -27 4 -49 18 -27 46 -31 106 -16 19 5 58 12 86 16 l51 7 120 -154 c66 -84 118 -156 116 -160 -2 -5 -80 -8 -173 -8 l-169 0 -33 58 c-18 31 -42 74 -53 95 -32 60 -96 63 -103 4 -2 -18 10 -46 37 -85 22 -33 37 -62 34 -66 -12 -11 -120 -6 -131 7 -32 40 -102 188 -102 218 0 49 -25 160 -45 203 -20 42 -63 76 -96 76 -15 0 -40 -18 -70 -51 -41 -43 -51 -49 -68 -40 -11 6 -29 11 -40 11 -16 0 -21 6 -21 28 0 40 -33 88 -67 96 -15 3 -85 9 -154 13 l-126 6 -34 -38 c-86 -94 -141 -146 -152 -142 -27 8 -42 62 -39 142 2 98 -8 126 -59 154 -32 19 -56 23 -142 24 l-102 2 -6 50 c-3 28 -14 86 -23 130 -20 99 -20 175 -1 221 8 19 59 83 114 142 135 146 184 208 223 283 32 62 33 68 31 169 -3 137 -1 144 45 136 106 -17 122 -18 158 -6 70 23 151 88 224 178 57 71 70 93 70 123 0 40 -12 54 -85 102 -84 54 -68 100 38 112 34 4 78 11 99 16 41 11 90 61 113 116 20 48 63 103 79 103 8 0 21 -19 31 -42z m1660 -456 c-9 -26 -20 -56 -25 -67 -5 -11 -23 -60 -40 -110 -17 -49 -35 -99 -40 -110 -4 -11 -11 -28 -14 -38 -3 -10 -10 -16 -16 -12 -5 3 -41 14 -80 24 -84 22 -97 32 -106 78 -8 44 5 57 111 113 90 47 138 88 166 142 18 34 50 54 58 35 2 -5 -4 -30 -14 -55z m190 16 c19 -13 35 -30 35 -40 0 -9 -30 -53 -66 -99 -36 -45 -81 -116 -100 -156 -33 -69 -56 -94 -71 -79 -4 3 -2 16 4 29 6 12 16 36 21 52 14 39 91 252 104 288 13 33 28 34 73 5z m453 -245 c28 -21 84 -63 124 -95 40 -31 102 -71 138 -90 58 -30 73 -33 148 -33 73 0 86 -3 101 -21 27 -34 76 -54 132 -54 45 0 55 4 85 34 24 24 34 43 34 65 0 40 17 40 77 -2 55 -37 106 -57 150 -57 21 0 39 10 62 36 40 43 50 38 27 -14 -10 -22 -16 -50 -14 -63 3 -22 8 -24 56 -24 l52 0 -6 -32 c-6 -30 -1 -38 55 -91 59 -57 60 -59 49 -89 -19 -49 3 -104 68 -171 78 -80 100 -111 115 -160 12 -42 26 -60 78 -100 l24 -19 -26 -35 c-30 -39 -42 -85 -33 -122 6 -24 71 -96 87 -96 5 0 9 -37 9 -82 0 -77 -3 -87 -35 -138 -36 -56 -42 -82 -25 -124 6 -18 5 -33 -6 -55 -16 -32 -12 -83 8 -108 6 -7 2 -26 -13 -54 -28 -56 -23 -99 26 -211 l38 -87 -27 -45 c-46 -78 -31 -123 51 -151 48 -17 48 -33 1 -57 -21 -11 -49 -33 -63 -50 -23 -27 -25 -38 -25 -122 0 -101 9 -125 84 -206 48 -53 76 -124 76 -195 0 -39 -5 -48 -60 -101 -49 -47 -60 -64 -60 -90 0 -48 17 -81 81 -154 60 -70 79 -99 79 -125 0 -28 -161 -260 -196 -283 -21 -14 -63 -25 -121 -32 -48 -7 -106 -17 -127 -23 -49 -14 -134 -91 -193 -176 -108 -154 -155 -211 -172 -211 -20 0 -105 86 -138 140 -12 19 -36 71 -53 115 -67 172 -150 320 -196 350 -55 36 -129 9 -175 -63 -24 -38 -29 -57 -29 -106 0 -61 1 -63 100 -241 27 -49 31 -77 13 -97 -9 -10 -21 -18 -28 -18 -6 0 -29 -15 -50 -33 l-39 -34 -8 -139 c-7 -128 -23 -222 -41 -240 -4 -4 -7 -14 -7 -22 0 -30 -52 -82 -123 -123 -51 -30 -103 -75 -177 -152 -98 -102 -192 -179 -250 -204 -63 -27 -83 -32 -176 -43 -150 -18 -234 -48 -278 -101 -40 -48 -58 -51 -246 -53 l-177 -1 -41 37 c-75 68 -178 75 -239 16 -18 -18 -33 -37 -33 -43 0 -6 -13 -32 -30 -58 -36 -57 -56 -60 -116 -15 -50 38 -53 50 -20 71 24 16 56 73 56 100 0 9 -11 29 -25 46 -48 57 -140 61 -360 15 -160 -33 -305 -61 -352 -68 l-33 -5 0 62 c0 54 -4 67 -28 96 -26 31 -33 34 -83 34 -45 0 -74 -9 -167 -53 -78 -36 -120 -50 -136 -46 -30 7 -127 80 -219 164 -154 141 -237 221 -237 231 0 6 14 18 32 27 42 22 58 39 67 72 11 38 -7 68 -75 126 -43 38 -64 66 -86 115 -70 158 -103 202 -175 236 -46 21 -80 51 -98 85 -25 49 -35 157 -23 272 11 119 8 137 -42 213 -25 39 -35 59 -59 119 -7 17 -15 75 -17 130 -8 167 11 178 178 106 122 -52 166 -58 243 -30 33 11 107 37 164 56 116 39 187 82 202 122 6 16 6 57 -1 118 -5 51 -7 100 -4 108 10 26 41 18 81 -19 41 -38 77 -50 126 -40 55 13 130 52 167 87 65 63 94 78 150 78 64 0 100 18 131 67 33 50 45 97 59 218 6 55 13 116 15 135 2 19 26 79 52 132 l48 98 68 0 c37 0 67 -2 67 -5 0 -2 -18 -28 -40 -57 -47 -63 -52 -100 -15 -124 22 -15 27 -15 48 -1 12 8 42 54 66 101 l44 86 178 0 c99 0 179 -2 179 -5 0 -3 -15 -24 -32 -48 -18 -24 -71 -97 -118 -161 l-85 -118 -45 6 c-175 24 -200 19 -200 -33 0 -43 17 -51 102 -51 43 0 78 -2 78 -5 0 -3 -17 -31 -37 -61 l-38 -57 -75 7 c-41 3 -98 9 -126 12 -48 6 -53 5 -69 -20 -15 -23 -16 -31 -5 -51 17 -31 48 -38 137 -29 40 3 73 3 73 -1 0 -10 -90 -129 -104 -136 -6 -4 -58 -1 -116 7 -58 7 -108 13 -112 14 -13 0 -48 -39 -48 -55 0 -8 9 -24 21 -36 17 -17 32 -20 102 -19 45 1 86 1 90 1 8 -1 -27 -56 -88 -137 -16 -23 -52 -73 -80 -112 -27 -39 -53 -71 -56 -72 -7 0 -23 50 -42 128 -17 70 -40 96 -75 87 -15 -4 -30 -12 -35 -18 -9 -14 -1 -80 13 -105 13 -24 50 -136 50 -152 0 -10 -22 -12 -109 -7 -127 6 -144 4 -161 -28 -11 -20 -10 -28 4 -50 14 -22 23 -25 69 -24 28 0 78 4 110 8 31 4 57 4 57 1 0 -8 -27 -46 -91 -127 -62 -78 -66 -101 -23 -130 22 -14 26 -14 48 0 13 9 50 57 82 106 57 90 74 107 74 74 0 -9 4 -30 9 -47 6 -17 17 -57 26 -88 18 -60 36 -75 80 -64 42 11 41 37 -9 171 -41 110 -45 105 93 105 127 0 151 8 151 51 0 37 -34 59 -87 54 -121 -11 -163 -13 -163 -9 0 3 44 64 99 137 54 73 104 142 112 155 23 37 36 26 59 -50 13 -40 29 -81 38 -90 29 -34 81 -16 84 29 1 10 -19 65 -45 122 -26 57 -44 109 -40 115 22 37 85 116 92 116 5 0 19 -31 31 -70 28 -90 48 -115 84 -106 15 3 31 17 37 29 10 23 0 51 -72 201 l-18 38 29 42 c44 62 59 80 63 75 2 -2 9 -22 16 -44 34 -107 69 -138 112 -99 26 24 25 32 -21 126 -22 46 -40 91 -40 101 0 18 17 43 159 235 35 48 75 104 89 125 18 26 31 37 45 35 13 -2 50 -45 99 -113 43 -60 100 -139 127 -175 80 -108 78 -97 26 -206 -44 -91 -46 -97 -30 -120 18 -27 56 -32 78 -9 8 8 23 40 33 72 9 32 20 62 24 66 6 7 90 -96 90 -112 0 -4 -11 -29 -24 -57 -73 -153 -77 -166 -49 -196 38 -42 75 -12 105 88 12 41 27 74 32 74 12 -1 96 -112 96 -128 0 -6 -20 -53 -45 -106 -51 -109 -53 -125 -25 -151 16 -15 26 -17 48 -9 22 8 31 21 46 69 10 33 24 73 30 89 l12 29 80 -109 c125 -170 157 -215 153 -218 -2 -2 -49 0 -103 4 -106 8 -130 3 -140 -34 -3 -11 1 -31 10 -43 14 -22 21 -23 139 -23 69 0 125 -1 125 -3 0 -7 -21 -69 -44 -132 -39 -106 -33 -145 25 -145 37 0 46 14 72 118 13 50 26 94 29 97 4 4 34 -35 68 -87 63 -94 84 -118 105 -118 18 0 55 39 55 58 0 9 -34 59 -75 111 -41 51 -75 96 -75 98 0 3 48 2 106 -2 93 -6 108 -5 125 11 25 23 24 59 -2 78 -18 12 -44 14 -142 9 -115 -6 -120 -5 -114 13 3 10 21 64 41 119 30 83 34 104 25 122 -14 27 -33 35 -64 27 -25 -6 -33 -19 -46 -74 -30 -133 -42 -159 -59 -130 -4 8 -54 79 -109 157 -56 78 -101 145 -101 150 0 4 36 7 81 5 61 -3 86 0 105 12 29 20 32 56 5 80 -17 16 -28 16 -103 6 -45 -6 -98 -12 -115 -15 -37 -4 -48 4 -95 73 -17 26 -36 50 -41 53 -20 14 16 20 87 13 62 -5 80 -4 101 10 30 20 33 56 5 81 -18 16 -27 17 -102 7 -145 -21 -150 -20 -197 43 -22 30 -41 57 -41 60 0 3 36 5 80 5 74 0 81 2 96 25 14 21 15 31 6 50 -10 21 -18 25 -58 25 -26 0 -75 -5 -110 -12 -74 -13 -77 -12 -135 72 -21 30 -70 98 -108 150 -38 52 -68 96 -66 98 5 5 345 3 353 -2 4 -2 27 -43 52 -91 49 -95 65 -110 103 -96 45 17 43 46 -7 122 -25 38 -43 69 -39 70 5 0 37 0 73 -1 72 -1 77 -4 120 -87 49 -96 71 -123 99 -123 65 0 67 54 6 135 -25 33 -45 63 -45 68 0 4 19 7 43 7 23 0 58 3 78 6 l36 6 64 -111 c54 -96 67 -111 89 -111 71 1 72 52 2 143 -29 36 -52 69 -52 72 0 3 90 5 200 5 166 0 200 -2 200 -14 0 -8 -3 -16 -7 -18 -5 -1 -32 -32 -60 -66 -71 -85 -71 -142 -1 -142 24 0 37 13 95 100 36 55 70 99 74 98 4 -2 39 -46 76 -98 51 -70 76 -96 94 -98 31 -3 46 7 54 39 5 21 -5 39 -59 106 -36 44 -66 84 -66 87 0 4 51 4 113 0 122 -7 150 -1 162 37 5 14 0 28 -15 44 -21 22 -26 23 -141 18 -65 -3 -119 -3 -119 1 0 4 24 35 54 71 30 35 60 73 66 86 24 43 -25 93 -68 70 -10 -5 -45 -51 -78 -100 -32 -50 -64 -91 -70 -91 -6 0 -24 19 -39 43 -52 79 -107 146 -126 152 -30 10 -59 -12 -59 -45 0 -22 17 -51 60 -104 33 -41 60 -77 60 -80 0 -3 -88 -6 -195 -6 -107 0 -195 4 -195 9 0 4 14 25 30 46 54 68 71 102 65 128 -13 50 -80 43 -108 -10 -46 -90 -81 -150 -95 -160 -21 -17 -162 -18 -162 -1 0 6 18 34 39 62 57 74 66 101 40 127 -15 15 -28 19 -47 14 -15 -4 -28 -7 -28 -8 -3 -3 -44 -76 -77 -137 -17 -30 -35 -58 -41 -62 -15 -10 -134 -10 -140 0 -2 4 14 32 36 61 58 76 55 130 -8 131 -27 0 -43 -19 -84 -100 -55 -107 -39 -100 -232 -100 -109 0 -168 4 -168 10 0 6 53 78 117 161 l117 151 46 -6 c25 -4 73 -12 108 -18 59 -11 64 -10 84 9 15 16 19 28 14 47 -8 34 -40 46 -117 46 -32 0 -59 4 -59 9 0 6 17 33 38 61 42 58 26 55 200 28 85 -14 106 -7 110 38 4 52 -8 59 -110 61 -51 1 -92 6 -91 10 5 15 88 122 98 126 6 2 35 1 65 -4 184 -27 210 -24 210 30 0 42 -17 51 -99 52 -93 1 -120 9 -100 30 21 21 192 246 209 274 8 14 18 25 21 25 3 0 11 -24 18 -52 29 -125 35 -144 49 -160 17 -21 53 -23 70 -6 19 19 14 61 -19 164 -17 52 -28 99 -23 103 5 4 58 4 118 1 67 -3 118 -1 130 5 27 14 32 52 10 76 -15 16 -31 19 -121 19 -56 0 -103 3 -103 8 0 4 31 43 70 87 53 61 70 87 70 111 0 35 -16 54 -45 54 -26 0 -50 -25 -113 -116 -26 -38 -54 -69 -62 -69 -9 0 -17 14 -21 35 -30 157 -37 173 -84 173 -51 0 -56 -35 -21 -146 13 -42 27 -90 31 -108 l7 -31 -123 6 c-68 4 -129 3 -136 -1 -6 -5 -14 -20 -18 -35 -5 -20 -2 -31 14 -45 18 -15 36 -17 127 -14 118 3 116 6 58 -65 -18 -22 -68 -85 -113 -141 -45 -57 -85 -103 -90 -103 -5 0 -11 10 -14 23 -34 137 -44 157 -85 157 -32 0 -52 -16 -52 -41 0 -16 51 -149 70 -181 15 -27 12 -62 -8 -84 -10 -10 -30 -36 -46 -56 -31 -42 -40 -42 -51 -1 -22 93 -38 134 -56 144 -25 13 -56 3 -70 -23 -12 -22 -2 -57 53 -176 l28 -63 -42 -59 c-24 -32 -45 -59 -48 -59 -3 -1 -16 33 -29 74 -13 41 -32 80 -42 87 -21 15 -24 3 41 178 31 83 81 220 134 370 15 41 31 84 36 95 5 11 14 37 21 57 11 31 19 38 54 47 53 13 73 24 160 85 228 161 288 219 302 294 8 45 10 47 48 53 54 8 83 21 129 58 21 17 44 31 51 31 6 0 35 -17 63 -37z m-1565 -1408 c8 -27 30 -88 47 -135 52 -142 62 -172 56 -178 -3 -3 -7 -3 -9 -1 -15 22 -93 125 -98 129 -3 3 -25 31 -48 62 l-43 58 21 45 c11 25 21 48 21 53 0 13 24 33 30 25 4 -5 14 -30 23 -58z m502 0 c29 -65 30 -69 10 -92 -22 -27 -145 -185 -161 -207 -19 -27 -29 -13 -16 21 6 15 29 80 52 143 23 63 45 124 50 135 4 11 11 28 14 38 10 30 25 19 51 -38z" />
<path d="M7641 11958 c-57 -10 -68 -20 -53 -53 12 -26 54 -35 67 -14 4 5 18 14 31 19 25 10 33 45 12 52 -7 3 -33 1 -57 -4z" />
<path d="M7747 11963 c-4 -3 -7 -21 -7 -38 0 -41 33 -74 58 -59 24 16 38 70 22 89 -13 15 -61 21 -73 8z" />
<path d="M7365 11892 c-6 -5 -35 -14 -66 -21 -45 -9 -64 -20 -100 -57 -36 -37 -42 -47 -32 -62 6 -9 21 -16 34 -15 13 1 49 4 79 6 64 4 100 23 100 52 0 17 6 21 35 21 49 0 64 17 45 52 -12 20 -25 28 -50 30 -19 2 -40 -1 -45 -6z" />
<path d="M6992 11729 c-17 -20 -29 -26 -36 -19 -17 17 -47 11 -83 -16 -41 -31 -42 -47 -2 -75 26 -18 35 -20 50 -11 10 7 39 12 63 12 49 0 102 26 149 71 45 45 38 53 -66 62 -44 4 -51 2 -75 -24z" />
<path d="M6464 11421 c-11 -5 -33 -24 -48 -41 -46 -56 -59 -97 -60 -197 -1 -91 -1 -92 33 -126 79 -82 215 -63 259 36 17 40 15 196 -3 240 -28 67 -122 113 -181 88z m78 -108 c15 -13 18 -31 18 -103 0 -53 -5 -91 -12 -98 -33 -33 -108 7 -108 57 0 38 28 122 47 143 20 22 31 23 55 1z" />
<path d="M6275 11000 c-55 -14 -82 -28 -108 -60 -48 -56 -29 -116 63 -209 34 -33 58 -65 55 -71 -4 -6 -34 -24 -68 -41 -82 -42 -117 -80 -117 -129 0 -51 32 -88 107 -125 82 -40 159 -41 228 -1 154 89 180 209 89 401 -45 94 -109 196 -137 216 -28 21 -74 28 -112 19z m73 -125 c34 -42 95 -154 116 -216 9 -24 16 -63 16 -87 0 -37 -6 -48 -45 -86 -48 -48 -86 -62 -137 -51 -37 9 -90 37 -95 51 -2 5 31 29 74 54 82 49 113 86 113 138 0 28 -11 45 -75 107 -41 40 -75 77 -75 83 0 17 28 33 72 41 3 0 20 -15 36 -34z" />
<path d="M5990 10487 c-35 -17 -90 -75 -90 -96 0 -44 63 -91 123 -91 42 0 50 15 35 66 -5 21 -8 52 -5 69 5 30 -11 66 -29 64 -5 0 -20 -6 -34 -12z" />
<path d="M30795 11129 c-209 -15 -435 -52 -600 -98 -222 -61 -328 -101 -527 -196 -311 -148 -634 -397 -854 -660 -96 -114 -234 -303 -234 -320 0 -4 -13 -25 -28 -48 -86 -126 -218 -434 -282 -657 -49 -173 -72 -284 -102 -495 -18 -125 -18 -689 0 -810 44 -296 89 -482 171 -703 161 -439 448 -844 805 -1136 96 -78 242 -181 320 -226 20 -11 53 -30 74 -41 48 -28 230 -119 237 -119 3 0 24 -8 48 -19 119 -53 313 -115 472 -151 283 -64 392 -75 755 -75 289 0 413 8 570 36 236 43 309 61 500 124 93 30 138 46 245 87 48 18 272 134 305 158 l30 21 0 505 c0 282 -4 504 -9 504 -5 0 -14 -7 -21 -15 -16 -19 -195 -155 -204 -155 -4 0 -26 -13 -49 -29 -45 -30 -289 -151 -307 -151 -6 0 -18 -4 -28 -10 -22 -12 -224 -80 -274 -91 -21 -5 -55 -13 -75 -18 -420 -99 -818 -100 -1238 -3 -52 12 -195 60 -217 72 -10 6 -23 10 -29 10 -26 0 -255 123 -353 190 -117 79 -285 234 -376 345 -129 158 -250 380 -313 575 -84 259 -110 432 -110 720 0 264 19 403 91 665 81 295 300 645 523 835 35 30 73 63 84 73 26 24 151 109 200 137 159 91 344 169 475 201 156 37 197 44 365 64 296 34 619 6 955 -83 42 -11 247 -79 275 -91 120 -53 288 -141 365 -191 98 -64 189 -135 203 -157 4 -7 12 -13 18 -13 6 0 8 190 7 511 l-3 512 -30 16 c-16 9 -57 32 -90 52 -137 80 -365 176 -520 219 -424 118 -816 159 -1220 129z" />
<path d="M14075 11038 c-3 -13 -4 -1274 -3 -2803 l3 -2780 458 -3 457 -2 -2 2802 -3 2803 -452 3 -453 2 -5 -22z" />
<path d="M16717 11053 c-4 -3 -7 -1266 -7 -2805 l0 -2798 458 2 457 3 0 1858 c0 1021 3 1857 6 1857 6 0 214 -211 829 -840 965 -987 1639 -1676 2055 -2100 122 -124 340 -346 485 -495 145 -148 270 -273 277 -278 6 -4 106 -6 220 -5 l208 3 3 2780 c1 1529 0 2790 -3 2803 l-5 22 -453 -2 -452 -3 -3 -1850 c-1 -1017 -6 -1853 -10 -1857 -5 -5 -53 38 -107 94 -55 57 -210 216 -345 353 -135 138 -473 482 -750 765 -277 283 -619 632 -760 775 -141 143 -483 492 -761 775 -277 283 -600 613 -718 733 l-215 217 -201 0 c-111 0 -205 -3 -208 -7z" />
<path d="M24909 11028 c-7 -18 -25 -61 -41 -96 -15 -34 -28 -65 -28 -67 0 -2 -13 -34 -30 -70 -16 -36 -30 -68 -30 -70 0 -2 -11 -28 -24 -57 -13 -29 -52 -118 -86 -198 -34 -80 -73 -169 -86 -198 -13 -29 -24 -55 -24 -57 0 -2 -12 -30 -26 -62 -15 -32 -37 -82 -50 -111 -13 -29 -24 -55 -24 -57 0 -2 -13 -34 -30 -70 -16 -36 -30 -68 -30 -70 0 -2 -13 -34 -30 -70 -16 -36 -30 -68 -30 -70 0 -2 -11 -28 -24 -57 -13 -29 -38 -87 -56 -128 -18 -41 -43 -99 -56 -128 -13 -29 -24 -55 -24 -57 0 -2 -11 -28 -24 -57 -13 -29 -38 -87 -56 -128 -18 -41 -43 -99 -56 -128 -13 -29 -24 -55 -24 -57 0 -2 -13 -34 -30 -70 -16 -36 -30 -68 -30 -70 0 -2 -11 -28 -24 -57 -13 -29 -52 -118 -86 -198 -34 -80 -73 -169 -86 -198 -13 -29 -24 -55 -24 -57 0 -2 -11 -28 -24 -57 -13 -29 -38 -87 -56 -128 -18 -41 -43 -99 -56 -128 -13 -29 -24 -55 -24 -57 0 -2 -13 -34 -30 -70 -16 -36 -30 -68 -30 -70 0 -2 -11 -28 -24 -57 -13 -29 -52 -118 -86 -198 -34 -80 -73 -169 -86 -198 -13 -29 -24 -55 -24 -57 0 -2 -11 -28 -24 -57 -13 -29 -35 -79 -50 -111 -14 -32 -26 -60 -26 -62 0 -2 -13 -34 -30 -70 -16 -36 -30 -68 -30 -70 0 -2 -13 -34 -30 -70 -16 -36 -30 -68 -30 -70 0 -2 -11 -28 -24 -57 -13 -29 -52 -118 -86 -198 -34 -80 -73 -169 -86 -198 -13 -29 -24 -55 -24 -57 0 -2 -11 -29 -25 -60 -14 -30 -36 -80 -50 -110 -14 -31 -25 -58 -25 -60 0 -2 -13 -34 -30 -70 -16 -36 -30 -68 -30 -70 0 -2 -13 -34 -30 -70 -16 -36 -30 -68 -30 -70 0 -2 -11 -28 -24 -57 -39 -86 -106 -245 -106 -252 0 -3 217 -5 482 -4 l482 3 48 110 c26 61 54 127 63 147 9 20 27 65 41 100 14 35 34 81 44 104 11 22 29 65 40 95 12 29 32 77 46 107 13 29 24 55 24 57 0 2 14 34 30 70 17 36 30 67 30 70 0 4 113 273 135 320 7 17 23 54 35 84 11 30 30 73 40 96 10 23 29 66 40 96 12 29 32 77 46 107 13 29 24 55 24 57 0 2 14 34 30 70 17 36 30 67 30 70 0 5 115 277 140 332 11 24 20 45 20 48 0 3 10 27 21 53 26 57 32 72 99 232 29 69 61 143 71 166 10 22 27 65 39 94 12 29 30 72 40 95 10 23 29 66 40 96 12 29 32 77 46 107 13 29 24 55 24 57 0 3 10 27 21 53 26 57 32 72 99 232 29 69 61 143 71 166 10 22 28 65 39 95 12 30 28 68 36 84 7 17 29 68 48 115 36 90 50 105 62 68 3 -13 20 -51 35 -86 16 -34 29 -65 29 -67 0 -2 14 -34 30 -70 17 -36 30 -68 30 -70 0 -2 11 -28 24 -57 13 -29 61 -141 106 -248 45 -107 93 -219 106 -248 13 -29 24 -55 24 -57 0 -3 9 -25 20 -50 11 -25 29 -65 40 -90 11 -25 20 -47 20 -50 0 -2 14 -34 30 -70 17 -36 30 -68 30 -70 0 -2 14 -34 30 -70 17 -36 30 -68 30 -70 0 -2 11 -28 24 -57 13 -29 61 -141 106 -248 45 -107 91 -213 101 -236 10 -22 28 -65 39 -95 12 -29 32 -77 46 -107 13 -29 24 -55 24 -57 0 -2 14 -34 30 -70 17 -36 30 -68 30 -70 0 -2 14 -34 30 -70 17 -36 30 -68 30 -70 0 -2 11 -28 24 -57 13 -29 47 -109 76 -178 29 -69 63 -149 76 -178 13 -29 24 -55 24 -57 0 -2 11 -28 24 -57 14 -30 34 -78 46 -108 12 -30 32 -78 46 -108 13 -29 24 -55 24 -57 0 -2 11 -28 24 -57 13 -29 31 -71 40 -93 10 -22 24 -56 32 -75 8 -19 48 -111 88 -205 l73 -170 487 -5 c268 -3 490 -1 493 3 3 5 1 19 -5 30 -22 47 -52 117 -52 122 0 2 -11 29 -25 60 -14 30 -36 80 -50 110 -14 31 -25 58 -25 60 0 2 -11 28 -24 57 -13 29 -52 118 -86 198 -34 80 -73 169 -86 198 -13 29 -24 55 -24 57 0 2 -13 34 -30 70 -16 36 -30 68 -30 70 0 2 -13 34 -30 70 -16 36 -30 68 -30 70 0 2 -11 29 -25 60 -14 30 -36 80 -50 110 -14 31 -25 58 -25 60 0 2 -11 28 -24 57 -13 29 -52 118 -86 198 -34 80 -73 169 -86 198 -13 29 -24 55 -24 57 0 2 -13 34 -30 70 -16 36 -30 68 -30 70 0 2 -13 34 -30 70 -16 36 -30 68 -30 70 0 2 -11 29 -25 60 -14 30 -36 80 -50 110 -14 31 -25 58 -25 60 0 2 -11 28 -24 57 -13 29 -52 118 -86 198 -34 80 -73 169 -86 198 -13 29 -24 55 -24 57 0 2 -13 34 -30 70 -16 36 -30 68 -30 70 0 2 -13 34 -30 70 -16 36 -30 68 -30 70 0 2 -11 29 -25 60 -14 30 -36 80 -50 110 -14 31 -25 58 -25 60 0 2 -11 28 -24 57 -13 29 -52 118 -86 198 -34 80 -73 169 -86 198 -13 29 -24 55 -24 57 0 2 -13 34 -30 70 -16 36 -30 68 -30 70 0 2 -11 28 -24 57 -13 29 -38 87 -56 128 -18 41 -43 99 -56 128 -13 29 -24 55 -24 57 0 2 -11 28 -24 57 -13 29 -52 118 -86 198 -34 80 -73 169 -86 198 -13 29 -24 55 -24 57 0 2 -13 34 -30 70 -16 36 -30 68 -30 70 0 2 -11 28 -24 57 -13 29 -35 79 -50 111 -14 32 -26 60 -26 62 0 2 -11 28 -24 57 -13 29 -36 82 -52 118 -15 36 -32 71 -37 78 -7 9 -63 12 -217 12 l-208 0 -13 -32z" />
<path d="M34037 11053 c-4 -3 -7 -1266 -7 -2805 l0 -2798 458 2 457 3 3 1203 2 1202 1505 0 1505 0 2 -1202 3 -1203 460 0 460 0 3 2780 c1 1529 0 2790 -3 2803 l-5 22 -458 -2 -457 -3 -5 -1170 -5 -1170 -1500 0 -1500 0 -5 1170 c-3 644 -6 1171 -8 1173 -5 5 -899 1 -905 -5z" />
</g>
</svg>